<svg width="24" height="24" viewBox="0 0 24 24" fill="none" xmlns="http://www.w3.org/2000/svg">
<path d="M4.46001 12.2383C4.32407 12.3472 4.25604 12.4752 4.25604 12.6224C4.25604 12.7696 4.32407 12.8944 4.46001 12.9967L9.26001 16.8367C9.38805 16.9456 9.54407 17 9.72808 17C9.9121 17 10.072 16.9456 10.2081 16.8367C10.3361 16.7344 10.4 16.6096 10.4 16.4624C10.4 16.3152 10.3361 16.1872 10.2081 16.0783L6.54808 13.16L19.3281 13.16C19.5121 13.16 19.672 13.1056 19.8081 12.9968C19.9361 12.8944 20 12.7696 20 12.6224C20 12.4752 19.9361 12.3472 19.8081 12.2383C19.672 12.136 19.5121 12.0848 19.3281 12.0848H6.54808L10.2081 9.15676C10.3361 9.05444 10.4 8.92962 10.4 8.78243C10.4 8.63525 10.3361 8.50721 10.2081 8.39833C10.072 8.29601 9.9121 8.24485 9.72808 8.24485C9.54406 8.24485 9.38803 8.29601 9.26001 8.39833L4.46001 12.2383Z" fill="white"/>
</svg>
