<svg width="24" height="24" viewBox="0 0 24 24" xmlns="http://www.w3.org/2000/svg" fill="currentColor">
<path fill="#535353" fill-rule="evenodd" clip-rule="evenodd"   d="M3.18848 11.9995C3.18848 16.8503 7.13785 20.7996 11.9886 20.7996C16.8393 20.7996 20.7887 16.8503 20.7887 11.9995C20.804 10.9176 19.1734 10.9176 19.1887 11.9995C19.1887 15.9856 15.9746 19.1995 11.9887 19.1995C8.00267 19.1995 4.78866 15.9855 4.78866 11.9995C4.78866 8.01414 8.00188 4.8002 11.9869 4.79952C14.2558 4.80219 16.3903 5.87228 17.748 7.69011C18.2086 8.3055 19.1874 7.98074 19.1887 7.212V3.9996C19.1948 3.54853 18.8272 3.18157 18.3761 3.18867C17.935 3.1955 17.5826 3.5583 17.5886 3.9996V5.22452C16.0294 3.93411 14.0562 3.20033 11.9894 3.19954C7.13798 3.19793 3.18861 7.14891 3.18861 11.9997L3.18848 11.9995ZM11.9917 6.39963C10.5253 6.39923 9.06508 7.00378 8.02756 8.04027C6.99014 9.07673 6.38788 10.5316 6.38692 11.9979C6.38652 13.4652 6.99001 14.9229 8.02756 15.9603C9.06512 16.9978 10.5242 17.6013 11.9917 17.6009C13.4582 17.6 14.9114 16.9977 15.9479 15.9603C16.9844 14.9229 17.5904 13.4642 17.5901 11.9979C17.5892 10.5323 16.9842 9.07649 15.9479 8.04027C14.9116 7.00392 13.4572 6.40059 11.9917 6.39963ZM11.9792 7.98709C12.4308 7.98173 12.7974 8.3511 12.7885 8.80272V11.6668L14.9558 13.834C15.7115 14.5903 14.5772 15.7247 13.8214 14.9684L11.4245 12.5637C11.2733 12.4142 11.1878 12.2106 11.187 11.9981V8.80272C11.1783 8.35779 11.5343 7.99138 11.9792 7.98709Z" />
</svg>
