<svg width="40" height="40" viewBox="0 0 40 40" fill="none" xmlns="http://www.w3.org/2000/svg">
<path fill-rule="evenodd" clip-rule="evenodd" d="M12.967 6.36689C12.7837 6.36689 12.5819 6.47783 12.5502 6.68899L8.86051 31.4501C8.83685 31.6095 8.86274 31.7296 8.94221 31.8283C9.0277 31.9347 9.14043 31.989 9.27703 31.989H24.565C24.7014 31.989 24.8141 31.9347 24.8996 31.8283C24.9802 31.7283 25.0052 31.6115 24.9813 31.4501L21.2916 6.68841C21.2601 6.47748 21.0581 6.36654 20.8749 6.36654H12.9669L12.967 6.36689ZM24.5653 32.4846H9.27725C8.99154 32.4846 8.73551 32.3621 8.55628 32.1393C8.38887 31.9308 8.32637 31.6748 8.37079 31.3772L12.0605 6.61609C12.1248 6.18439 12.5063 5.87146 12.9674 5.87146H20.8754C21.3366 5.87146 21.7178 6.18441 21.7821 6.61609L25.4718 31.3772C25.516 31.6748 25.4535 31.931 25.2863 32.1386C25.1071 32.3618 24.8511 32.4846 24.5654 32.4846L24.5653 32.4846Z" fill="#526072"/>
<path fill-rule="evenodd" clip-rule="evenodd" d="M16.9214 9.17271C15.2337 9.17271 13.5717 9.06245 11.9817 8.84481C11.8462 8.82606 11.7514 8.70084 11.7699 8.56535C11.7884 8.42986 11.9136 8.33499 12.0489 8.35374C13.6168 8.5687 15.2561 8.67695 16.9213 8.67695C18.5865 8.67695 20.2257 8.56847 21.7936 8.35374C21.9293 8.33499 22.0541 8.42986 22.0726 8.56535C22.0911 8.70084 21.9963 8.82606 21.8608 8.84481C20.2706 9.06222 18.6088 9.17271 16.9213 9.17271H16.9214Z" fill="#526072"/>
<path fill-rule="evenodd" clip-rule="evenodd" d="M13.158 34.1215H10.7912C10.7153 34.1215 10.6437 34.0867 10.5968 34.0273C10.5497 33.9679 10.5327 33.8898 10.5501 33.8164L10.9405 32.1798C10.9722 32.0463 11.1062 31.9641 11.239 31.9958C11.372 32.0275 11.4544 32.1617 11.4225 32.2947L11.1048 33.626H12.8439L12.5263 32.2947C12.4946 32.1617 12.5767 32.0275 12.7098 31.9958C12.8428 31.9641 12.9765 32.046 13.0082 32.1798L13.3986 33.8162C13.4162 33.8898 13.399 33.9679 13.3519 34.0271C13.3051 34.0865 13.2332 34.1213 13.1575 34.1213L13.158 34.1215Z" fill="#526072"/>
<path fill-rule="evenodd" clip-rule="evenodd" d="M23.0514 34.1215H20.6846C20.6087 34.1215 20.5371 34.0867 20.4902 34.0273C20.4433 33.9679 20.4262 33.8898 20.4438 33.8164L20.8342 32.1798C20.8659 32.0463 20.9998 31.9641 21.1326 31.9958C21.2657 32.0275 21.3478 32.1617 21.3161 32.2947L20.9985 33.626H22.7376L22.4199 32.2947C22.3882 32.1617 22.4704 32.0275 22.6034 31.9958C22.7364 31.9641 22.8702 32.046 22.9019 32.1798L23.2923 33.8162C23.3099 33.8898 23.2927 33.9679 23.2456 34.0271C23.1987 34.0865 23.1271 34.1213 23.0512 34.1213L23.0514 34.1215Z" fill="#526072"/>
<path fill-rule="evenodd" clip-rule="evenodd" d="M24.4303 26.321H9.41085C9.27402 26.321 9.16309 26.21 9.16309 26.0732C9.16309 25.9364 9.27402 25.8254 9.41085 25.8254H24.4303C24.5671 25.8254 24.678 25.9364 24.678 26.0732C24.678 26.21 24.5671 26.321 24.4303 26.321Z" fill="#526072"/>
<path fill-rule="evenodd" clip-rule="evenodd" d="M14.9172 26.3209C14.7804 26.3209 14.6694 26.21 14.6694 26.0732V8.87203C14.6694 8.7352 14.7804 8.62427 14.9172 8.62427C15.054 8.62427 15.165 8.7352 15.165 8.87203V26.0732C15.165 26.21 15.054 26.3209 14.9172 26.3209ZM18.9246 26.3209C18.7877 26.3209 18.6768 26.21 18.6768 26.0732V8.87203C18.6768 8.7352 18.7877 8.62427 18.9246 8.62427C19.0614 8.62427 19.1723 8.7352 19.1723 8.87203V26.0732C19.1723 26.21 19.0614 26.3209 18.9246 26.3209Z" fill="#526072"/>
<path fill-rule="evenodd" clip-rule="evenodd" d="M16.9211 26.321C16.7843 26.321 16.6733 26.21 16.6733 26.0732V11.2709C16.6733 11.1341 16.7843 11.0231 16.9211 11.0231C17.0579 11.0231 17.1689 11.1341 17.1689 11.2709V26.0732C17.1689 26.21 17.0579 26.321 16.9211 26.321Z" fill="#526072"/>
<path fill-rule="evenodd" clip-rule="evenodd" d="M17.5948 13.0535H16.2468C16.11 13.0535 15.999 12.9426 15.999 12.8057C15.999 12.6689 16.11 12.558 16.2468 12.558H17.5948C17.7316 12.558 17.8426 12.6689 17.8426 12.8057C17.8426 12.9426 17.7316 13.0535 17.5948 13.0535Z" fill="#526072"/>
<path fill-rule="evenodd" clip-rule="evenodd" d="M17.5948 14.7295H16.2468C16.11 14.7295 15.999 14.6186 15.999 14.4818C15.999 14.3449 16.11 14.234 16.2468 14.234H17.5948C17.7316 14.234 17.8426 14.3449 17.8426 14.4818C17.8426 14.6186 17.7316 14.7295 17.5948 14.7295Z" fill="#526072"/>
<path fill-rule="evenodd" clip-rule="evenodd" d="M17.5948 16.4061H16.2468C16.11 16.4061 15.999 16.2952 15.999 16.1583C15.999 16.0215 16.11 15.9106 16.2468 15.9106H17.5948C17.7316 15.9106 17.8426 16.0215 17.8426 16.1583C17.8426 16.2952 17.7316 16.4061 17.5948 16.4061Z" fill="#526072"/>
<path fill-rule="evenodd" clip-rule="evenodd" d="M17.5948 18.0821H16.2468C16.11 18.0821 15.999 17.9711 15.999 17.8343C15.999 17.6975 16.11 17.5865 16.2468 17.5865H17.5948C17.7316 17.5865 17.8426 17.6975 17.8426 17.8343C17.8426 17.9711 17.7316 18.0821 17.5948 18.0821Z" fill="#526072"/>
<path fill-rule="evenodd" clip-rule="evenodd" d="M17.5948 19.7581H16.2468C16.11 19.7581 15.999 19.6472 15.999 19.5103C15.999 19.3735 16.11 19.2626 16.2468 19.2626H17.5948C17.7316 19.2626 17.8426 19.3735 17.8426 19.5103C17.8426 19.6472 17.7316 19.7581 17.5948 19.7581Z" fill="#526072"/>
<path fill-rule="evenodd" clip-rule="evenodd" d="M17.5948 21.4341H16.2468C16.11 21.4341 15.999 21.3231 15.999 21.1863C15.999 21.0495 16.11 20.9385 16.2468 20.9385H17.5948C17.7316 20.9385 17.8426 21.0495 17.8426 21.1863C17.8426 21.3231 17.7316 21.4341 17.5948 21.4341Z" fill="#526072"/>
<path fill-rule="evenodd" clip-rule="evenodd" d="M17.5948 23.1106H16.2468C16.11 23.1106 15.999 22.9997 15.999 22.8629C15.999 22.726 16.11 22.6151 16.2468 22.6151H17.5948C17.7316 22.6151 17.8426 22.726 17.8426 22.8629C17.8426 22.9997 17.7316 23.1106 17.5948 23.1106Z" fill="#526072"/>
<path fill-rule="evenodd" clip-rule="evenodd" d="M17.5948 24.7861H16.2468C16.11 24.7861 15.999 24.6751 15.999 24.5383C15.999 24.4015 16.11 24.2905 16.2468 24.2905H17.5948C17.7316 24.2905 17.8426 24.4015 17.8426 24.5383C17.8426 24.6751 17.7316 24.7861 17.5948 24.7861Z" fill="#526072"/>
<path fill-rule="evenodd" clip-rule="evenodd" d="M24.2836 14.6438L26.1437 15.7177L27.7399 14.2806L26.8663 12.3183L24.7303 12.5429L24.2837 14.644L24.2836 14.6438ZM26.1756 16.2699C26.133 16.2699 26.0903 16.259 26.0517 16.2364L23.8798 14.9826C23.7867 14.9291 23.739 14.8219 23.7613 14.7168L24.2827 12.2639C24.305 12.1587 24.3923 12.0799 24.4992 12.069L26.9934 11.8063C27.1001 11.796 27.2019 11.8541 27.2456 11.952L28.2658 14.2429C28.3095 14.3409 28.285 14.4565 28.2053 14.5282L26.3417 16.2058C26.295 16.2478 26.2356 16.2697 26.1758 16.2697L26.1756 16.2699Z" fill="#526072"/>
<path fill-rule="evenodd" clip-rule="evenodd" d="M18.9249 26.3209C18.8827 26.3209 18.8403 26.31 18.8012 26.2874C18.6827 26.2191 18.6421 26.068 18.7104 25.9493L24.8755 15.2704C24.9441 15.1523 25.0956 15.1117 25.2142 15.18C25.3327 15.2483 25.3733 15.4001 25.3048 15.5182L19.1396 26.1965C19.0937 26.2759 19.0104 26.3204 18.9249 26.3204V26.3209Z" fill="#526072"/>
<path fill-rule="evenodd" clip-rule="evenodd" d="M27.0191 12.3003C26.9771 12.3003 26.9345 12.2901 26.8954 12.2675C26.7769 12.1992 26.7363 12.0474 26.8048 11.9287L27.5666 10.609C27.6351 10.491 27.7867 10.4503 27.9052 10.5186C28.0238 10.5869 28.0644 10.7387 27.9959 10.8568L27.234 12.1765C27.188 12.2559 27.1048 12.3004 27.0193 12.3004L27.0191 12.3003Z" fill="#526072"/>
<path fill-rule="evenodd" clip-rule="evenodd" d="M26.6103 27.9106H24.6672C24.5304 27.9106 24.4194 27.7997 24.4194 27.6629C24.4194 27.526 24.5304 27.4151 24.6672 27.4151H26.6103C26.7471 27.4151 26.858 27.526 26.858 27.6629C26.858 27.7997 26.7471 27.9106 26.6103 27.9106ZM26.6103 29.2439H24.8661C24.7293 29.2439 24.6183 29.133 24.6183 28.9961C24.6183 28.8593 24.7293 28.7484 24.8661 28.7484H26.6105C26.7473 28.7484 26.8583 28.8593 26.8583 28.9961C26.8583 29.133 26.7473 29.2439 26.6105 29.2439H26.6103Z" fill="#526072"/>
<path fill-rule="evenodd" clip-rule="evenodd" d="M26.8583 29.4044H28.2463V27.2541H26.8583V29.4044ZM28.494 29.8999H26.6106C26.4737 29.8999 26.3628 29.789 26.3628 29.6521V27.0064C26.3628 26.8695 26.4737 26.7586 26.6106 26.7586H28.494C28.6309 26.7586 28.7418 26.8695 28.7418 27.0064V29.6521C28.7418 29.789 28.6309 29.8999 28.494 29.8999Z" fill="#526072"/>
<path fill-rule="evenodd" clip-rule="evenodd" d="M29.5841 30.4289C29.0314 30.4289 28.5098 30.216 28.1149 29.8287C28.0171 29.7332 28.0156 29.5765 28.1113 29.4783C28.2071 29.3807 28.364 29.3789 28.4618 29.4751C28.7633 29.7707 29.162 29.9334 29.5841 29.9334C30.4685 29.9334 31.1879 29.214 31.1879 28.3292C31.1879 27.445 30.4685 26.7256 29.5841 26.7256C29.162 26.7256 28.7634 26.8884 28.4618 27.1839C28.364 27.2794 28.2071 27.2781 28.1113 27.1801C28.0156 27.0825 28.0171 26.9259 28.1149 26.8296C28.5098 26.443 29.0314 26.2301 29.5841 26.2301C30.7417 26.2301 31.6836 27.1716 31.6836 28.3292C31.6836 29.4868 30.7419 30.4289 29.5841 30.4289Z" fill="#526072"/>
<path fill-rule="evenodd" clip-rule="evenodd" d="M21.4292 28.5135H12.4138C12.277 28.5135 12.166 28.4033 12.166 28.2658C12.166 28.1289 12.277 28.018 12.4138 28.018H21.4292C21.566 28.018 21.677 28.1289 21.677 28.2658C21.677 28.4033 21.566 28.5135 21.4292 28.5135Z" fill="#526072"/>
<path fill-rule="evenodd" clip-rule="evenodd" d="M21.4292 30.2918H12.4138C12.277 30.2918 12.166 30.1809 12.166 30.044C12.166 29.9072 12.277 29.7963 12.4138 29.7963H21.4292C21.566 29.7963 21.677 29.9072 21.677 30.044C21.677 30.1809 21.566 30.2918 21.4292 30.2918Z" fill="#526072"/>
</svg>
