<svg width="24" height="24" viewBox="0 0 24 24" fill="none" xmlns="http://www.w3.org/2000/svg">
<path d="M9.87075 5.06592H6.91282C5.93688 5.06592 5.14282 5.8597 5.14282 6.83564V9.79666C5.14282 10.7729 5.93661 11.5667 6.91282 11.5667H9.87075C10.8467 11.5667 11.6408 10.7729 11.6408 9.79666V6.83564C11.6408 5.85997 10.847 5.06592 9.87075 5.06592Z" fill="#535353"/>
<path d="M9.87075 12.266H6.91282C5.93688 12.266 5.14282 13.0598 5.14282 14.0357V16.9967C5.14282 17.973 5.93661 18.7667 6.91282 18.7667H9.87075C10.8467 18.7667 11.6408 17.973 11.6408 16.9967V14.0357C11.6408 13.06 10.847 12.266 9.87075 12.266Z" fill="#535353"/>
<path d="M17.0707 12.4549H14.1128C13.1368 12.4549 12.3428 13.2487 12.3428 14.2246V17.1856C12.3428 18.1619 13.1366 18.9556 14.1128 18.9556H17.0707C18.0466 18.9556 18.8407 18.1619 18.8407 17.1856V14.2246C18.8407 13.2487 18.0469 12.4549 17.0707 12.4549Z" fill="#535353"/>
<path d="M12.7925 8.76472H15.1415V11.1168C15.1415 11.3652 15.3428 11.5668 15.5915 11.5668C15.8402 11.5668 16.0415 11.3652 16.0415 11.1168V8.76472H18.3905C18.6392 8.76472 18.8405 8.56316 18.8405 8.31472C18.8405 8.06628 18.6392 7.86472 18.3905 7.86472H16.0415V5.51573C16.0415 5.2673 15.8402 5.06573 15.5915 5.06573C15.3428 5.06573 15.1415 5.2673 15.1415 5.51573V7.86472H12.7925C12.5438 7.86472 12.3425 8.06628 12.3425 8.31472C12.3425 8.56316 12.5438 8.76472 12.7925 8.76472Z" fill="#535353"/>
</svg>
