<svg width="18" height="18" viewBox="0 0 18 18" fill="none" xmlns="http://www.w3.org/2000/svg">
<path fill-rule="evenodd" clip-rule="evenodd" d="M10.5432 4.82891C11.1104 4.82891 11.684 5.04414 12.1199 5.48007C12.5559 5.916 12.7711 6.48961 12.7711 7.0568C12.7711 7.38801 13.0399 7.6568 13.3711 7.6568C13.7023 7.6568 13.9711 7.38801 13.9711 7.0568C13.9711 6.18399 13.6399 5.30233 12.9686 4.63122C12.2974 3.96077 11.4159 3.62878 10.5431 3.62878C10.2119 3.62878 9.94307 3.89757 9.94307 4.22878C9.94307 4.55998 10.2119 4.82878 10.5431 4.82878L10.5432 4.82891Z" fill="white"/>
<path fill-rule="evenodd" clip-rule="evenodd" d="M10.5456 2C11.8392 1.99437 13.1321 2.48963 14.1216 3.47843C15.1104 4.46802 15.6057 5.76083 15.6 7.05443C15.5984 7.38564 15.8664 7.65522 16.1968 7.65683C16.528 7.65844 16.7984 7.39125 16.8 7.06006C16.8073 5.45761 16.1952 3.85527 14.9696 2.63034C13.7448 1.40477 12.1424 0.792697 10.5399 0.799931C10.2087 0.801538 9.94153 1.07194 9.94314 1.40315C9.94474 1.73356 10.2143 2.00154 10.5455 1.99993L10.5456 2Z" fill="white"/>
<path fill-rule="evenodd" clip-rule="evenodd" d="M9.74332 12.2665C7.93448 11.1473 6.45296 9.66577 5.33281 7.85771C5.70875 7.40651 6.38322 6.59693 6.7688 6.13283C7.08165 5.75771 7.17515 5.24408 7.01523 4.78081C6.62804 3.64966 6.41039 2.51593 6.38965 1.38155C6.38322 0.619897 5.75845 0.000765637 4.99048 -5.72205e-05H1.84569C1.10173 -5.72205e-05 0.488048 0.580777 0.44735 1.32317L0.400208 2.19999C0.400208 10.4783 7.12192 17.2 15.4002 17.2L16.277 17.1528C17.0194 17.112 17.6003 16.4985 17.6003 15.7545C17.6003 14.9016 17.6003 13.52 17.5954 12.6353C17.5954 12.2632 17.4442 11.9032 17.1762 11.6409C16.9098 11.3809 16.5506 11.2376 16.1778 11.2432C15.0682 11.2521 13.9586 11.0401 12.8498 10.6144C12.3778 10.4312 11.8411 10.5192 11.4499 10.844L9.74345 12.2664L9.74332 12.2665ZM9.24416 13.3681C9.24496 13.3689 9.24576 13.3689 9.24576 13.3697C9.6106 13.5881 10.0737 13.5521 10.4002 13.2801C10.8114 12.9384 11.7098 12.1896 12.217 11.7672C12.2729 11.7209 12.3498 11.708 12.4177 11.7344C12.4185 11.7344 12.4193 11.7352 12.4201 11.7352C13.6753 12.2168 14.9313 12.4528 16.1874 12.4432H16.1963C16.2483 12.4415 16.2995 12.4623 16.337 12.4983C16.3739 12.5352 16.3954 12.5855 16.3954 12.6383V12.6415C16.4003 13.5248 16.4003 14.9032 16.4003 15.7543C16.4003 15.8606 16.3171 15.9487 16.2114 15.9542L15.3843 15.9998C7.78416 15.9909 1.61479 9.82524 1.60005 2.22616L1.64559 1.38856C1.65121 1.28302 1.7392 1.19972 1.84554 1.19972H4.98951C5.09906 1.19972 5.18866 1.28851 5.18946 1.39807V1.40369C5.21263 2.65968 5.45102 3.91485 5.87987 5.17101C5.88067 5.17181 5.88067 5.17261 5.88067 5.17342C5.90384 5.23904 5.89032 5.31177 5.84545 5.36547C5.84545 5.36547 5.84545 5.36628 5.84465 5.36628C5.42626 5.87106 4.66539 6.78392 4.31907 7.19909C4.04706 7.52547 4.01023 7.98872 4.22947 8.35421C4.23028 8.35501 4.23028 8.35581 4.23108 8.35662C5.48546 10.4286 7.17108 12.1143 9.24399 13.3678L9.24416 13.3681Z" fill="white"/>
</svg>
