<svg width="40" height="40" viewBox="0 0 40 40" fill="none" xmlns="http://www.w3.org/2000/svg">
<path d="M30.882 15.7235C30.7137 15.5047 30.3999 15.4639 30.1809 15.632L26.022 18.8313C26.2686 19.059 26.4755 19.3264 26.634 19.6221L30.7907 16.4248C31.0095 16.2563 31.0506 15.9424 30.882 15.7235Z" fill="#526072"/>
<path d="M25.9858 21.0287C25.9858 20.4983 25.7751 19.9896 25.4001 19.6144C25.0249 19.2394 24.5162 19.0287 23.9858 19.0287C23.4555 19.0287 22.9468 19.2394 22.5716 19.6144C22.1966 19.9896 21.9858 20.4983 21.9858 21.0287C21.9858 21.559 22.1966 22.0678 22.5716 22.443C22.9468 22.818 23.4555 23.0287 23.9858 23.0287C24.5162 23.028 25.0245 22.8171 25.3994 22.4423C25.7742 22.0673 25.9852 21.559 25.9858 21.0287ZM23.9858 22.0287C23.7207 22.0287 23.4662 21.9233 23.2787 21.7358C23.0912 21.5483 22.9858 21.2939 22.9858 21.0287C22.9858 20.7635 23.0912 20.509 23.2787 20.3215C23.4662 20.134 23.7207 20.0287 23.9858 20.0287C24.251 20.0287 24.5055 20.134 24.693 20.3215C24.8805 20.509 24.9858 20.7635 24.9858 21.0287C24.9856 21.2939 24.88 21.5481 24.6928 21.7356C24.5053 21.9229 24.251 22.0285 23.9858 22.0287Z" fill="#526072"/>
<path d="M23.4858 29.5287V30.5287C23.4858 30.8048 23.7097 31.0287 23.9858 31.0287C24.262 31.0287 24.4858 30.8048 24.4858 30.5287V29.5287C24.4858 29.2526 24.262 29.0287 23.9858 29.0287C23.7097 29.0287 23.4858 29.2526 23.4858 29.5287Z" fill="#526072"/>
<path d="M33.4858 21.5287C33.762 21.5287 33.9858 21.3048 33.9858 21.0287C33.9858 20.7526 33.762 20.5287 33.4858 20.5287H32.4858C32.2097 20.5287 31.9858 20.7526 31.9858 21.0287C31.9858 21.3048 32.2097 21.5287 32.4858 21.5287H33.4858Z" fill="#526072"/>
<path d="M30.0791 26.1652C29.8782 25.9757 29.5619 25.9849 29.3722 26.1856C29.1827 26.3864 29.1919 26.7027 29.3925 26.8925L30.1196 27.5789V27.5786C30.3216 27.765 30.6354 27.7561 30.8265 27.5583C30.9175 27.4619 30.9664 27.3333 30.9626 27.2007C30.9588 27.0684 30.9026 26.9427 30.8062 26.8516L30.0791 26.1652Z" fill="#526072"/>
<path d="M17.8691 26.1653L17.142 26.8517C16.9414 27.0412 16.9322 27.3577 17.1217 27.5583C17.3115 27.7592 17.6277 27.7682 17.8286 27.5787L18.5557 26.8923V26.8925C18.7561 26.7027 18.7648 26.3867 18.5755 26.186C18.386 25.9856 18.0699 25.9762 17.8691 26.1653Z" fill="#526072"/>
<path d="M23.5248 10.0052C23.6895 10.0186 23.8542 9.98001 23.9958 9.89452C24.1203 9.79965 24.1935 9.6521 24.194 9.49563V8.68249L26.3656 10.7184L24.194 12.6155V11.8233C24.202 11.6762 24.1498 11.5323 24.0489 11.4247C23.9482 11.3173 23.8078 11.2557 23.6605 11.2541C21.648 11.3133 19.7036 11.9972 18.0971 13.2111C16.4909 14.4249 15.3018 16.1086 14.6956 18.0285H14.7358C15.0654 18.0285 15.3858 18.1376 15.6467 18.3388C16.1648 16.6968 17.1585 15.2454 18.502 14.1685C19.8456 13.0917 21.4786 12.4379 23.194 12.2897V13.7162C23.194 13.9124 23.3087 14.0904 23.4871 14.1714C23.6656 14.2526 23.8752 14.2218 24.0228 14.0928L27.4395 11.108V11.1082C27.546 11.0151 27.6083 10.8817 27.6107 10.7404C27.6132 10.5991 27.5558 10.4634 27.4527 10.3667L24.036 7.16379C23.8906 7.02741 23.6781 6.99058 23.4953 7.06982C23.3123 7.14906 23.194 7.3292 23.194 7.52852V9.02384C20.6672 9.18477 18.2565 10.1433 16.3094 11.7613C14.3619 13.3794 12.9782 15.5738 12.3574 18.0288H13.3941C14.0153 15.7908 15.3311 13.808 17.1519 12.366C18.9726 10.9241 21.2043 10.0975 23.525 10.0055L23.5248 10.0052Z" fill="#526072"/>
<path d="M30.2934 10.7881C30.1806 10.718 30.0449 10.6957 29.9157 10.726C29.7864 10.7561 29.6746 10.8365 29.6047 10.9492C29.5349 11.0622 29.5125 11.1979 29.5429 11.3271C29.5733 11.4561 29.6536 11.568 29.7666 11.6378C31.7043 12.8287 33.2255 14.5903 34.1215 16.6807C35.0175 18.7713 35.2442 21.0878 34.7703 23.3121C34.2965 25.5365 33.1453 27.5597 31.475 29.1036C29.8049 30.6473 27.6976 31.6359 25.443 31.9337C23.1881 32.2314 20.8964 31.8234 18.883 30.766C16.8694 29.7086 15.2328 28.0535 14.1978 26.0283H13.0859C14.1359 28.3026 15.871 30.1914 18.0482 31.4301C20.2255 32.6689 22.7357 33.1953 25.2271 32.9359C27.7186 32.6763 30.0664 31.6437 31.9414 29.983C33.8163 28.3222 35.1251 26.1162 35.6838 23.6744C36.2425 21.2325 36.0231 18.6771 35.0563 16.3664C34.0898 14.0555 32.4244 12.105 30.2936 10.7881L30.2934 10.7881Z" fill="#526072"/>
<path d="M10.1733 20.0287H14.7359C15.012 20.0287 15.2359 19.8048 15.2359 19.5287C15.2359 19.2526 15.012 19.0287 14.7359 19.0287H10.1733C9.89723 19.0287 9.67334 19.2526 9.67334 19.5287C9.67334 19.8048 9.89723 20.0287 10.1733 20.0287Z" fill="#526072"/>
<path d="M15.2363 24.5287C15.2363 24.2526 15.0125 24.0287 14.7363 24.0287H10.1738C9.89771 24.0287 9.67383 24.2526 9.67383 24.5287C9.67383 24.8048 9.89771 25.0287 10.1738 25.0287H14.7363C15.0125 25.0287 15.2363 24.8048 15.2363 24.5287Z" fill="#526072"/>
<path d="M14.2361 22.0287C14.2361 21.7526 14.0122 21.5287 13.7361 21.5287H4.48584C4.20973 21.5287 3.98584 21.7526 3.98584 22.0287C3.98584 22.3048 4.20973 22.5287 4.48584 22.5287H13.7361C14.0122 22.5287 14.2361 22.3048 14.2361 22.0287Z" fill="#526072"/>
<path d="M7.23633 20.0287H8.23633C8.51244 20.0287 8.73633 19.8048 8.73633 19.5287C8.73633 19.2526 8.51244 19.0287 8.23633 19.0287H7.23633C6.96021 19.0287 6.73633 19.2526 6.73633 19.5287C6.73633 19.8048 6.96021 20.0287 7.23633 20.0287Z" fill="#526072"/>
<path d="M8.23633 24.0287H7.23633C6.96021 24.0287 6.73633 24.2526 6.73633 24.5287C6.73633 24.8048 6.96021 25.0287 7.23633 25.0287H8.23633C8.51244 25.0287 8.73633 24.8048 8.73633 24.5287C8.73633 24.2526 8.51244 24.0287 8.23633 24.0287Z" fill="#526072"/>
</svg>
