<svg width="40" height="40" viewBox="0 0 40 40" fill="none" xmlns="http://www.w3.org/2000/svg">
<path d="M20.0142 9.51434C17.2294 9.51434 14.5586 10.6206 12.5896 12.5898C10.6204 14.5587 9.51416 17.2295 9.51416 20.0143C9.51416 22.7992 10.6204 25.4699 12.5896 27.4389C14.5586 29.4081 17.2293 30.5143 20.0142 30.5143C22.799 30.5143 25.4698 29.4081 27.4387 27.4389C29.4079 25.4699 30.5142 22.7992 30.5142 20.0143C30.5115 17.2304 29.4043 14.5612 27.4358 12.5926C25.4673 10.6241 22.7981 9.51697 20.0141 9.51428L20.0142 9.51434ZM20.0142 29.5143C17.4945 29.5143 15.0782 28.5134 13.297 26.7318C11.5153 24.9503 10.5144 22.534 10.5144 20.0146C10.5144 17.4953 11.5154 15.0787 13.297 13.2975C15.0785 11.5158 17.4948 10.5149 20.0142 10.5149C22.5335 10.5149 24.9501 11.5158 26.7313 13.2975C28.513 15.079 29.5139 17.4953 29.5139 20.0146C29.5112 22.5334 28.5094 24.9481 26.7284 26.7289C24.9474 28.5099 22.5326 29.5117 20.0141 29.5144L20.0142 29.5143Z" fill="#526072"/>
<path d="M24.5142 20.0143C24.5142 22.4996 22.4994 24.5143 20.0142 24.5143C17.5289 24.5143 15.5142 22.4996 15.5142 20.0143C15.5142 17.5291 17.5289 15.5143 20.0142 15.5143C22.4994 15.5143 24.5142 17.5291 24.5142 20.0143Z" fill="#526072"/>
</svg>
