<svg width="20" height="21" viewBox="0 0 20 21" fill="none" xmlns="http://www.w3.org/2000/svg">
<g clip-path="url(#clip0_149_486)">
<path d="M12.9167 11.7336H12.2583L12.025 11.5086C12.8417 10.5586 13.3333 9.32523 13.3333 7.98356C13.3333 4.99189 10.9083 2.56689 7.91667 2.56689C4.925 2.56689 2.5 4.99189 2.5 7.98356C2.5 10.9752 4.925 13.4002 7.91667 13.4002C9.25833 13.4002 10.4917 12.9086 11.4417 12.0919L11.6667 12.3252V12.9836L15.8333 17.1419L17.075 15.9002L12.9167 11.7336ZM7.91667 11.7336C5.84167 11.7336 4.16667 10.0586 4.16667 7.98356C4.16667 5.90856 5.84167 4.23356 7.91667 4.23356C9.99167 4.23356 11.6667 5.90856 11.6667 7.98356C11.6667 10.0586 9.99167 11.7336 7.91667 11.7336Z" fill="#878997"/>
</g>
<defs>
<clipPath id="clip0_149_486">
<rect width="20" height="20" fill="white" transform="translate(0 0.0668945)"/>
</clipPath>
</defs>
</svg>
