<svg width="25" height="24" viewBox="0 0 25 24" fill="none" xmlns="http://www.w3.org/2000/svg">
<g clip-path="url(#clip0_4_322)">
<path d="M19.6017 12.98C19.6417 12.66 19.6717 12.34 19.6717 12C19.6717 11.66 19.6417 11.34 19.6017 11.02L21.7117 9.37C21.9017 9.22 21.9517 8.95 21.8317 8.73L19.8317 5.27C19.7417 5.11 19.5717 5.02 19.3917 5.02C19.3317 5.02 19.2717 5.03 19.2217 5.05L16.7317 6.05C16.2117 5.65 15.6517 5.32 15.0417 5.07L14.6617 2.42C14.6317 2.18 14.4217 2 14.1717 2H10.1717C9.92171 2 9.71171 2.18 9.68171 2.42L9.30171 5.07C8.69171 5.32 8.13171 5.66 7.61171 6.05L5.12171 5.05C5.06171 5.03 5.00171 5.02 4.94171 5.02C4.77171 5.02 4.60171 5.11 4.51171 5.27L2.51171 8.73C2.38171 8.95 2.44171 9.22 2.63171 9.37L4.74171 11.02C4.70171 11.34 4.67171 11.67 4.67171 12C4.67171 12.33 4.70171 12.66 4.74171 12.98L2.63171 14.63C2.44171 14.78 2.39171 15.05 2.51171 15.27L4.51171 18.73C4.60171 18.89 4.77171 18.98 4.95171 18.98C5.01171 18.98 5.07171 18.97 5.12171 18.95L7.61171 17.95C8.13171 18.35 8.69171 18.68 9.30171 18.93L9.68171 21.58C9.71171 21.82 9.92171 22 10.1717 22H14.1717C14.4217 22 14.6317 21.82 14.6617 21.58L15.0417 18.93C15.6517 18.68 16.2117 18.34 16.7317 17.95L19.2217 18.95C19.2817 18.97 19.3417 18.98 19.4017 18.98C19.5717 18.98 19.7417 18.89 19.8317 18.73L21.8317 15.27C21.9517 15.05 21.9017 14.78 21.7117 14.63L19.6017 12.98ZM17.6217 11.27C17.6617 11.58 17.6717 11.79 17.6717 12C17.6717 12.21 17.6517 12.43 17.6217 12.73L17.4817 13.86L18.3717 14.56L19.4517 15.4L18.7517 16.61L17.4817 16.1L16.4417 15.68L15.5417 16.36C15.1117 16.68 14.7017 16.92 14.2917 17.09L13.2317 17.52L13.0717 18.65L12.8717 20H11.4717L11.2817 18.65L11.1217 17.52L10.0617 17.09C9.63171 16.91 9.23171 16.68 8.83171 16.38L7.92171 15.68L6.86171 16.11L5.59171 16.62L4.89171 15.41L5.97171 14.57L6.86171 13.87L6.72171 12.74C6.69171 12.43 6.67171 12.2 6.67171 12C6.67171 11.8 6.69171 11.57 6.72171 11.27L6.86171 10.14L5.97171 9.44L4.89171 8.6L5.59171 7.39L6.86171 7.9L7.90171 8.32L8.80171 7.64C9.23171 7.32 9.64171 7.08 10.0517 6.91L11.1117 6.48L11.2717 5.35L11.4717 4H12.8617L13.0517 5.35L13.2117 6.48L14.2717 6.91C14.7017 7.09 15.1017 7.32 15.5017 7.62L16.4117 8.32L17.4717 7.89L18.7417 7.38L19.4417 8.59L18.3717 9.44L17.4817 10.14L17.6217 11.27ZM12.1717 8C9.96171 8 8.17171 9.79 8.17171 12C8.17171 14.21 9.96171 16 12.1717 16C14.3817 16 16.1717 14.21 16.1717 12C16.1717 9.79 14.3817 8 12.1717 8ZM12.1717 14C11.0717 14 10.1717 13.1 10.1717 12C10.1717 10.9 11.0717 10 12.1717 10C13.2717 10 14.1717 10.9 14.1717 12C14.1717 13.1 13.2717 14 12.1717 14Z" fill="#ADADAD"/>
</g>
<defs>
<clipPath id="clip0_4_322">
<rect width="24" height="24" fill="white" transform="translate(0.171875)"/>
</clipPath>
</defs>
</svg>
