<svg width="24" height="24" viewBox="0 0 24 24" fill="none" xmlns="http://www.w3.org/2000/svg">
<path d="M14.8 12.0001C14.8 13.5464 13.5464 14.8001 12 14.8001C10.4536 14.8001 9.19995 13.5464 9.19995 12.0001C9.19995 10.4537 10.4536 9.20004 12 9.20004C13.5464 9.20004 14.8 10.4537 14.8 12.0001Z" fill="#535353"/>
<path d="M4.00015 14H5.2161C5.39208 14 5.53605 14.104 5.60006 14.264C5.67212 14.4959 5.76801 14.7119 5.87207 14.928C5.94413 15.08 5.91212 15.264 5.79212 15.384L4.92815 16.2401C4.8561 16.32 4.80815 16.4161 4.80815 16.528C4.80815 16.6321 4.8561 16.736 4.92815 16.8081L7.19221 19.0721C7.26426 19.1442 7.36819 19.1921 7.47225 19.1921C7.58422 19.1921 7.68024 19.1442 7.7602 19.0721L8.61614 18.2082C8.6961 18.1361 8.80016 18.0882 8.90409 18.0882C8.96007 18.0882 9.02409 18.1041 9.07203 18.1282C9.28806 18.2323 9.5041 18.3282 9.73604 18.4083C9.89609 18.4642 10 18.6162 10 18.7842L10.0002 20C10.0002 20.2241 10.1761 20.4 10.4002 20.4H13.6002C13.8242 20.4 14.0002 20.2241 14.0002 20V18.7841C14.0002 18.6161 14.1043 18.4641 14.2642 18.4081C14.4961 18.3282 14.7121 18.2321 14.9282 18.1281C15.0802 18.056 15.2642 18.088 15.3842 18.208L16.2402 19.072C16.3201 19.144 16.4161 19.192 16.5281 19.192C16.6322 19.192 16.7361 19.144 16.8081 19.072L19.0722 16.8079C19.1443 16.7359 19.1922 16.632 19.1922 16.5279C19.1922 16.4159 19.1443 16.3199 19.0722 16.2399L18.2082 15.384C18.0882 15.264 18.0562 15.08 18.1283 14.928C18.2323 14.7119 18.3282 14.4959 18.4003 14.264C18.4643 14.1039 18.6083 14 18.7843 14H20.0001C20.2241 14 20.4001 13.824 20.4001 13.5999V10.4C20.4001 10.1759 20.2241 9.99994 20.0001 9.99994H18.7841C18.6081 9.99994 18.4642 9.89587 18.4002 9.73596C18.3281 9.504 18.2322 9.28799 18.1281 9.07195C18.0561 8.91994 18.0881 8.73592 18.2081 8.61592L19.0721 7.75997C19.1441 7.68002 19.1921 7.58399 19.1921 7.47203C19.1921 7.36797 19.1441 7.26404 19.0721 7.19198L16.808 4.92793C16.736 4.85587 16.632 4.80793 16.528 4.80793C16.416 4.80793 16.32 4.85587 16.24 4.92793L15.3841 5.79189C15.2641 5.91189 15.0801 5.9439 14.928 5.87185C14.712 5.76778 14.496 5.67189 14.264 5.5918C14.104 5.53582 14.0001 5.38381 14.0001 5.21586V4.00005C14.0001 3.77599 13.8241 3.60001 13.6 3.60001H10.4001C10.1761 3.60001 10.0002 3.77599 10.0002 4.00005V5.216C10.0002 5.38394 9.89609 5.53595 9.73618 5.59194C9.50421 5.67189 9.2882 5.76792 9.07217 5.87198C8.92016 5.94404 8.73614 5.91203 8.61613 5.79203L7.76005 4.92806C7.6801 4.85601 7.58407 4.80806 7.47211 4.80806C7.36804 4.80806 7.26412 4.85601 7.19206 4.92806L4.92814 7.19198C4.85609 7.26404 4.80814 7.36797 4.80814 7.47203C4.80814 7.58399 4.85609 7.68002 4.92814 7.75997L5.79211 8.61592C5.91211 8.73592 5.94412 8.91994 5.87206 9.07195C5.76813 9.28798 5.67211 9.50402 5.60005 9.73596C5.53603 9.89601 5.39206 10.0001 5.21609 10.0001H4.00014C3.77608 10.0001 3.6001 10.1761 3.6001 10.4001V13.6001C3.6001 13.824 3.77609 14 4.00015 14ZM12 8.4001C13.9841 8.4001 15.6 10.0161 15.6 12.0001C15.6 13.9841 13.9841 15.6001 12 15.6001C10.016 15.6001 8.40004 13.9841 8.40004 12.0001C8.40004 10.0161 10.016 8.4001 12 8.4001Z" fill="#535353"/>
</svg>
